<?xml version="1.0" encoding="utf-8"?>
<!-- Generator: Adobe Illustrator 24.0.1, SVG Export Plug-In . SVG Version: 6.00 Build 0)  -->
<svg version="1.1" id="Ebene_1" xmlns="http://www.w3.org/2000/svg" xmlns:xlink="http://www.w3.org/1999/xlink" x="0px" y="0px"
	 viewBox="0 0 256 256" style="enable-background:new 0 0 256 256;" xml:space="preserve">
<style type="text/css">
	.st0{fill:#EDF1F4;}
	.st1{fill:none;stroke:#353449;stroke-width:4;stroke-miterlimit:10;}
	.st2{fill:none;stroke:#353449;stroke-width:8;stroke-miterlimit:10;}
	.st3{fill:#FFFFFF;stroke:#353449;stroke-miterlimit:10;}
	.st4{fill:#353449;}
	.st5{fill:none;stroke:#353449;stroke-miterlimit:10;}
	.st6{fill:#353449;stroke:#353449;stroke-miterlimit:10;}
	.st7{fill:none;stroke:#353449;stroke-width:2;stroke-miterlimit:10;}
</style>
<g>
	<path class="st0" d="M141.6,75.3c-4.8-2.8-12.6-2.8-17.3,0L91.6,94.1c-4.8,2.8-8.7,9.5-8.7,15v37.7c0,5.5,3.9,12.2,8.7,15
		l32.7,18.9c4.8,2.8,12.6,2.8,17.3,0l32.7-18.9c4.8-2.8,8.7-9.5,8.7-15v-37.7c0-5.5-3.9-12.2-8.7-15L141.6,75.3z"/>
	<path class="st1" d="M141.6,75.3c-4.8-2.8-12.6-2.8-17.3,0L91.6,94.1c-4.8,2.8-8.7,9.5-8.7,15v37.7c0,5.5,3.9,12.2,8.7,15
		l32.7,18.9c4.8,2.8,12.6,2.8,17.3,0l32.7-18.9c4.8-2.8,8.7-9.5,8.7-15v-37.7c0-5.5-3.9-12.2-8.7-15L141.6,75.3z"/>
</g>
<g>
	<path class="st2" d="M141.4,58.1c-4.8-2.8-12.6-2.7-17.3,0L76.5,85.6c-4.8,2.8-8.7,9.5-8.7,15v55c0,5.5,3.9,12.2,8.7,15l47.6,27.5
		c4.8,2.8,12.6,2.8,17.3,0l47.6-27.5c4.8-2.8,8.7-9.5,8.7-15v-55c0-5.5-3.9-12.2-8.7-15L141.4,58.1z"/>
</g>
<path class="st3" d="M113.8,141.9"/>
<g>
	<path class="st4" d="M149.8,157.4c0,0.6-0.4,1-1,1h-3c-0.6,0-1-0.4-1-1v-36c0-0.6,0.4-1,1-1h3c0.6,0,1,0.4,1,1V157.4z"/>
	<path class="st5" d="M149.8,157.4c0,0.6-0.4,1-1,1h-3c-0.6,0-1-0.4-1-1v-36c0-0.6,0.4-1,1-1h3c0.6,0,1,0.4,1,1V157.4z"/>
</g>
<g>
	<path class="st4" d="M113.5,157.4c0,0.6-0.4,1-1,1h-3c-0.6,0-1-0.4-1-1v-16c0-0.6,0.4-1,1-1h3c0.6,0,1,0.4,1,1V157.4z"/>
	<path class="st5" d="M113.5,157.4c0,0.6-0.4,1-1,1h-3c-0.6,0-1-0.4-1-1v-16c0-0.6,0.4-1,1-1h3c0.6,0,1,0.4,1,1V157.4z"/>
</g>
<g>
	<path class="st4" d="M142.5,157.4c0,0.6-0.4,1-1,1h-3c-0.6,0-1-0.4-1-1v-31c0-0.6,0.4-1,1-1h3c0.6,0,1,0.4,1,1V157.4z"/>
	<path class="st5" d="M142.5,157.4c0,0.6-0.4,1-1,1h-3c-0.6,0-1-0.4-1-1v-31c0-0.6,0.4-1,1-1h3c0.6,0,1,0.4,1,1V157.4z"/>
</g>
<g>
	<path class="st4" d="M120.8,157.3c0,0.6-0.4,1-1,1l-3,0c-0.5,0-1-0.5-1-1v-21c0-0.6,0.4-1,1-1l3,0c0.5,0,1,0.5,1,1V157.3z"/>
	<path class="st5" d="M120.8,157.3c0,0.6-0.4,1-1,1l-3,0c-0.5,0-1-0.5-1-1v-21c0-0.6,0.4-1,1-1l3,0c0.5,0,1,0.5,1,1V157.3z"/>
</g>
<g>
	<path class="st4" d="M135.3,157.4c0,0.6-0.4,1-1,1h-3c-0.5,0-1-0.4-1-1v-21c0-0.6,0.5-1,1-1h3c0.6,0,1,0.4,1,1V157.4z"/>
	<path class="st5" d="M135.3,157.4c0,0.6-0.4,1-1,1h-3c-0.5,0-1-0.4-1-1v-21c0-0.6,0.5-1,1-1h3c0.6,0,1,0.4,1,1V157.4z"/>
</g>
<path class="st3" d="M114.9,126.5"/>
<path class="st3" d="M55.4,89.7"/>
<g>
	<path class="st4" d="M128,157.4c0,0.6-0.4,1-1,1h-3c-0.6,0-1-0.4-1-1v-26c0-0.6,0.4-1,1-1h3c0.6,0,1,0.4,1,1V157.4z"/>
	<path class="st5" d="M128,157.4c0,0.6-0.4,1-1,1h-3c-0.6,0-1-0.4-1-1v-26c0-0.6,0.4-1,1-1h3c0.6,0,1,0.4,1,1V157.4z"/>
</g>
<g>
	<path class="st4" d="M157.4,157.4c0,0.6-0.5,1-1,1h-3c-0.6,0-1-0.4-1-1v-41c0-0.6,0.4-1,1-1h3c0.5,0,1,0.4,1,1V157.4z"/>
	<path class="st5" d="M157.4,157.4c0,0.6-0.5,1-1,1h-3c-0.6,0-1-0.4-1-1v-41c0-0.6,0.4-1,1-1h3c0.5,0,1,0.4,1,1V157.4z"/>
</g>
<path class="st5" d="M111,136.6"/>
<path class="st5" d="M94.7,124.9"/>
<path class="st6" d="M111,136.6"/>
<g>
	<path class="st4" d="M161.7,100c0.2-0.5-0.1-0.9-0.6-0.8l-9.9,1.6c-0.5,0.1-0.7,0.5-0.4,0.9l6.3,7.8c0.3,0.4,0.8,0.4,1-0.2
		L161.7,100z"/>
	<path class="st5" d="M161.7,100c0.2-0.5-0.1-0.9-0.6-0.8l-9.9,1.6c-0.5,0.1-0.7,0.5-0.4,0.9l6.3,7.8c0.3,0.4,0.8,0.4,1-0.2
		L161.7,100z"/>
</g>
<polyline class="st7" points="108.5,131.4 125.5,117.4 132.8,123 134,122 136.2,120.2 157.4,102.9 "/>
</svg>
